<svg width="14" height="14" viewBox="0 0 14 14" fill="none" xmlns="http://www.w3.org/2000/svg">
<g clip-path="url(#clip0_8_2486)">
<mask id="mask0_8_2486" style="mask-type:luminance" maskUnits="userSpaceOnUse" x="0" y="0" width="14" height="14">
<path d="M14 0H0V14H14V0Z" fill="white"/>
</mask>
<g mask="url(#mask0_8_2486)">
<path d="M7.5831 1.19642V0.583333C7.5831 0.428624 7.52162 0.280251 7.41224 0.170854C7.30281 0.0614582 7.15447 0 6.99977 0C6.84501 0 6.69667 0.0614582 6.58729 0.170854C6.47786 0.280251 6.41643 0.428624 6.41643 0.583333V1.19642C5.24203 1.3017 4.11949 1.72912 3.17249 2.43158C2.22549 3.13404 1.49076 4.08427 1.04927 5.1776C0.607781 6.27089 0.476656 7.46492 0.670344 8.62797C0.864034 9.79107 1.37502 10.8781 2.147 11.7693C1.84213 11.9201 1.58737 12.1559 1.41339 12.4482C1.23941 12.7404 1.15364 13.0768 1.16642 13.4167C1.16642 13.5714 1.22787 13.7198 1.33727 13.8291C1.44667 13.9385 1.59504 14 1.74975 14C1.90446 14 2.05283 13.9385 2.16222 13.8291C2.27162 13.7198 2.33308 13.5714 2.33308 13.4167C2.32823 13.2369 2.39278 13.0621 2.51334 12.9286C2.6339 12.7951 2.80121 12.7132 2.98058 12.6997C3.0207 12.6921 3.05984 12.68 3.09725 12.6636C4.21464 13.5302 5.58857 14.0006 7.00268 14.0006C8.41674 14.0006 9.79067 13.5302 10.9081 12.6636C10.9422 12.6793 10.9778 12.6918 11.0143 12.7009C11.1942 12.7132 11.3625 12.7945 11.484 12.9278C11.6055 13.0612 11.6709 13.2363 11.6664 13.4167C11.6664 13.5714 11.7279 13.7198 11.8373 13.8291C11.9467 13.9385 12.095 14 12.2498 14C12.4045 14 12.5528 13.9385 12.6622 13.8291C12.7716 13.7198 12.8331 13.5714 12.8331 13.4167C12.8459 13.0768 12.7601 12.7404 12.5861 12.4482C12.4121 12.1559 12.1574 11.9201 11.8525 11.7693C12.6245 10.8781 13.1354 9.79107 13.3292 8.62797C13.5228 7.46492 13.3917 6.27089 12.9502 5.1776C12.5087 4.08427 11.774 3.13404 10.827 2.43158C9.87998 1.72912 8.75747 1.3017 7.5831 1.19642ZM1.74975 7.58333C1.74975 6.545 2.05766 5.52995 2.63453 4.66659C3.21141 3.80323 4.03135 3.13032 4.99066 2.73296C5.94994 2.33561 7.00554 2.23164 8.02398 2.43421C9.04237 2.63678 9.97786 3.1368 10.712 3.87102C11.4463 4.60525 11.9463 5.54071 12.1489 6.55912C12.3514 7.5775 12.2475 8.6331 11.8501 9.59245C11.4528 10.5517 10.7798 11.3717 9.91649 11.9485C9.05316 12.5254 8.0381 12.8333 6.99977 12.8333C5.60788 12.8316 4.27351 12.2779 3.28931 11.2937C2.30511 10.3096 1.75145 8.97522 1.74975 7.58333Z" fill="#FE724C"/>
<path d="M11.2086 -0.000246649C11.0539 -0.000246649 10.9056 0.0612115 10.7962 0.170607C10.6868 0.280004 10.6253 0.428377 10.6253 0.583087C10.6253 0.737795 10.6868 0.886171 10.7962 0.995564C10.9056 1.10496 11.0539 1.16642 11.2086 1.16642C11.4121 1.15096 11.6165 1.17685 11.8096 1.24254C12.0028 1.30822 12.1806 1.41234 12.3324 1.54861C12.4842 1.68488 12.6069 1.85049 12.6929 2.03544C12.779 2.22039 12.8267 2.42086 12.8332 2.62476C12.8332 2.77946 12.8947 2.92784 13.0041 3.03723C13.1135 3.14663 13.2618 3.20809 13.4165 3.20809C13.5713 3.20809 13.7196 3.14663 13.8291 3.03723C13.9385 2.92784 13.9999 2.77946 13.9999 2.62476C13.9924 2.26804 13.9139 1.9164 13.7689 1.59041C13.6239 1.2644 13.4154 0.970597 13.1554 0.726169C12.8956 0.481741 12.5895 0.291599 12.2552 0.166869C11.9209 0.0421393 11.5652 -0.0146739 11.2086 -0.000246649Z" fill="#FE724C"/>
<path d="M1.16667 2.62476C1.17317 2.42086 1.22089 2.22039 1.30697 2.03544C1.39304 1.85049 1.51568 1.68488 1.66749 1.54861C1.81929 1.41234 1.99713 1.30822 2.19026 1.24254C2.3834 1.17685 2.58784 1.15096 2.79125 1.16642C2.94596 1.16642 3.09433 1.10496 3.20373 0.995564C3.31312 0.886171 3.37458 0.737795 3.37458 0.583087C3.37458 0.428377 3.31312 0.280004 3.20373 0.170607C3.09433 0.0612115 2.94596 -0.000246649 2.79125 -0.000246649C2.43475 -0.0146739 2.07896 0.0421393 1.74468 0.166869C1.41041 0.291599 1.10436 0.481741 0.844451 0.726169C0.584541 0.970597 0.375986 1.2644 0.230989 1.59041C0.0859921 1.9164 0.00746445 2.26804 0 2.62476C0 2.77946 0.0614582 2.92784 0.170854 3.03723C0.280251 3.14663 0.428624 3.20809 0.583333 3.20809C0.738045 3.20809 0.886416 3.14663 0.995814 3.03723C1.10521 2.92784 1.16667 2.77946 1.16667 2.62476Z" fill="#FE724C"/>
<path d="M7.58333 6.7585V4.08333C7.58333 3.92862 7.52185 3.78025 7.41248 3.67085C7.3031 3.56146 7.1547 3.5 7 3.5C6.8453 3.5 6.6969 3.56146 6.58753 3.67085C6.47815 3.78025 6.41667 3.92862 6.41667 4.08333V7C6.41673 7.1547 6.47821 7.30304 6.58758 7.41242L8.33758 9.16242C8.4476 9.2687 8.59495 9.3275 8.7479 9.32616C8.90085 9.32482 9.04715 9.26345 9.1553 9.1553C9.26345 9.04715 9.32482 8.90085 9.32616 8.7479C9.3275 8.59495 9.2687 8.4476 9.16242 8.33758L7.58333 6.7585Z" fill="#FE724C"/>
</g>
</g>
<defs>
<clipPath id="clip0_8_2486">
<rect width="14" height="14" fill="white"/>
</clipPath>
</defs>
</svg>
