<svg width="16" height="16" viewBox="0 0 16 16" fill="none" xmlns="http://www.w3.org/2000/svg">
<path d="M4.27325 6H11.7266C11.8584 6.00055 11.9871 6.04019 12.0965 6.1139C12.2058 6.18761 12.2908 6.29207 12.3407 6.4141C12.3907 6.53612 12.4033 6.6702 12.3771 6.7994C12.3509 6.9286 12.2869 7.04713 12.1933 7.14L8.47327 10.86C8.41127 10.9225 8.33753 10.9721 8.25627 11.0059C8.17507 11.0397 8.08793 11.0572 7.99993 11.0572C7.91193 11.0572 7.8248 11.0397 7.74353 11.0059C7.66227 10.9721 7.58853 10.9225 7.5266 10.86L3.80658 7.14C3.71297 7.04713 3.64899 6.9286 3.62273 6.7994C3.59647 6.6702 3.60912 6.53612 3.65907 6.4141C3.70902 6.29207 3.79403 6.18761 3.90335 6.1139C4.01267 6.04019 4.1414 6.00055 4.27325 6Z" fill="black" fill-opacity="0.25"/>
</svg>
