<svg width="20" height="20" viewBox="0 0 20 20" fill="none" xmlns="http://www.w3.org/2000/svg">
<path d="M11.875 3.75C10.8472 3.75 10 4.59717 10 5.625H6.25V13.125H17.5V5.625H13.75C13.75 4.59717 12.9028 3.75 11.875 3.75ZM2.5 4.375V5.625H3.125C3.47168 5.625 3.75 5.90332 3.75 6.25V13.125C3.75 14.5068 4.86817 15.625 6.25 15.625H17.5V14.375H6.25C5.50537 14.375 5 13.8697 5 13.125V6.25C5 5.22217 4.15283 4.375 3.125 4.375H2.5ZM15.3125 15.625C14.7949 15.625 14.375 16.0449 14.375 16.5625C14.375 17.0801 14.7949 17.5 15.3125 17.5C15.8301 17.5 16.25 17.0801 16.25 16.5625C16.25 16.0449 15.8301 15.625 15.3125 15.625ZM7.8125 15.625C7.29492 15.625 6.875 16.0449 6.875 16.5625C6.875 17.0801 7.29492 17.5 7.8125 17.5C8.33007 17.5 8.75 17.0801 8.75 16.5625C8.75 16.0449 8.33007 15.625 7.8125 15.625ZM11.875 5C12.2217 5 12.5 5.27832 12.5 5.625H11.25C11.25 5.27832 11.5283 5 11.875 5ZM7.5 6.875H16.25V11.875H7.5V6.875Z" fill="white"/>
</svg>
