<svg width="20" height="20" viewBox="0 0 20 20" fill="none" xmlns="http://www.w3.org/2000/svg">
<g clip-path="url(#clip0_16_2489)">
<mask id="mask0_16_2489" style="mask-type:luminance" maskUnits="userSpaceOnUse" x="0" y="0" width="20" height="20">
<path d="M20 0H0V20H20V0Z" fill="white"/>
</mask>
<g mask="url(#mask0_16_2489)">
<path d="M3.33332 6.6665H16.6667V17.4998C16.6667 17.7208 16.5788 17.9328 16.4226 18.0891C16.2663 18.2453 16.0543 18.3332 15.8333 18.3332H4.16666C3.94564 18.3332 3.73368 18.2453 3.5774 18.0891C3.42112 17.9328 3.33332 17.7208 3.33332 17.4998V6.6665ZM4.99999 8.33317V16.6665H15V8.33317H4.99999ZM7.49999 9.99984H9.16666V14.9998H7.49999V9.99984ZM10.8333 9.99984H12.5V14.9998H10.8333V9.99984ZM5.83332 4.1665V2.49984C5.83332 2.27882 5.92112 2.06686 6.0774 1.91058C6.23368 1.7543 6.44564 1.6665 6.66666 1.6665H13.3333C13.5543 1.6665 13.7663 1.7543 13.9226 1.91058C14.0788 2.06686 14.1667 2.27882 14.1667 2.49984V4.1665H18.3333V5.83317H1.66666V4.1665H5.83332ZM7.49999 3.33317V4.1665H12.5V3.33317H7.49999Z" fill="#FE202F"/>
</g>
</g>
<defs>
<clipPath id="clip0_16_2489">
<rect width="20" height="20" fill="white"/>
</clipPath>
</defs>
</svg>
