<svg width="14" height="14" viewBox="0 0 14 14" fill="none" xmlns="http://www.w3.org/2000/svg">
<g clip-path="url(#clip0_16_2462)">
<mask id="mask0_16_2462" style="mask-type:luminance" maskUnits="userSpaceOnUse" x="0" y="0" width="14" height="14">
<path d="M14 0H0V14H14V0Z" fill="white"/>
</mask>
<g mask="url(#mask0_16_2462)">
<path d="M7 12.8332C3.77825 12.8332 1.16666 10.2216 1.16666 6.99984C1.16666 3.77809 3.77825 1.1665 7 1.1665C10.2217 1.1665 12.8333 3.77809 12.8333 6.99984C12.8333 10.2216 10.2217 12.8332 7 12.8332ZM7 11.6665C8.23766 11.6665 9.42468 11.1748 10.2999 10.2997C11.175 9.42452 11.6667 8.2375 11.6667 6.99984C11.6667 5.76216 11.175 4.57518 10.2999 3.70001C9.42468 2.82483 8.23766 2.33317 7 2.33317C5.76232 2.33317 4.57534 2.82483 3.70017 3.70001C2.82499 4.57518 2.33333 5.76216 2.33333 6.99984C2.33333 8.2375 2.82499 9.42452 3.70017 10.2997C4.57534 11.1748 5.76232 11.6665 7 11.6665ZM4.95833 8.1665H8.16666C8.24401 8.1665 8.31821 8.13576 8.37293 8.0811C8.42759 8.02639 8.45833 7.95219 8.45833 7.87484C8.45833 7.79749 8.42759 7.72329 8.37293 7.66857C8.31821 7.61391 8.24401 7.58317 8.16666 7.58317H5.83333C5.44656 7.58317 5.07562 7.42952 4.80213 7.15605C4.52864 6.88253 4.375 6.51159 4.375 6.12484C4.375 5.73806 4.52864 5.36713 4.80213 5.09364C5.07562 4.82015 5.44656 4.6665 5.83333 4.6665H6.41666V3.49984H7.58333V4.6665H9.04166V5.83317H5.83333C5.75598 5.83317 5.68179 5.86391 5.62709 5.91857C5.57239 5.97329 5.54166 6.04749 5.54166 6.12484C5.54166 6.20219 5.57239 6.27639 5.62709 6.3311C5.68179 6.38576 5.75598 6.4165 5.83333 6.4165H8.16666C8.55341 6.4165 8.92436 6.57015 9.19788 6.84362C9.47135 7.11715 9.625 7.48809 9.625 7.87484C9.625 8.26159 9.47135 8.63253 9.19788 8.90605C8.92436 9.17952 8.55341 9.33317 8.16666 9.33317H7.58333V10.4998H6.41666V9.33317H4.95833V8.1665Z" fill="#FE724C"/>
</g>
</g>
<defs>
<clipPath id="clip0_16_2462">
<rect width="14" height="14" fill="white"/>
</clipPath>
</defs>
</svg>
