<svg width="20" height="20" viewBox="0 0 20 20" fill="none" xmlns="http://www.w3.org/2000/svg">
<path d="M15.8333 1.6665H4.16666C3.50361 1.6665 2.86773 1.9299 2.39889 2.39874C1.93005 2.86758 1.66666 3.50346 1.66666 4.1665V15.8332C1.66666 16.4962 1.93005 17.1321 2.39889 17.6009C2.86773 18.0698 3.50361 18.3332 4.16666 18.3332H15.8333C16.4963 18.3332 17.1322 18.0698 17.6011 17.6009C18.0699 17.1321 18.3333 16.4962 18.3333 15.8332V4.1665C18.3333 3.50346 18.0699 2.86758 17.6011 2.39874C17.1322 1.9299 16.4963 1.6665 15.8333 1.6665ZM16.6667 15.8332C16.6667 16.0542 16.5788 16.2662 16.4226 16.4224C16.2663 16.5787 16.0543 16.6665 15.8333 16.6665H4.16666C3.94564 16.6665 3.73368 16.5787 3.5774 16.4224C3.42112 16.2662 3.33332 16.0542 3.33332 15.8332V4.1665C3.33332 3.94549 3.42112 3.73353 3.5774 3.57725C3.73368 3.42097 3.94564 3.33317 4.16666 3.33317H15.8333C16.0543 3.33317 16.2663 3.42097 16.4226 3.57725C16.5788 3.73353 16.6667 3.94549 16.6667 4.1665V15.8332ZM9.99999 6.6665C9.55799 6.6665 9.13407 6.8421 8.82149 7.15466C8.50891 7.46722 8.33332 7.89115 8.33332 8.33317C8.33507 8.624 8.41291 8.90934 8.55907 9.16084C8.70532 9.41225 8.91474 9.62109 9.16666 9.7665V12.4998C9.16666 12.7208 9.25449 12.9328 9.41074 13.0891C9.56699 13.2453 9.77899 13.3332 9.99999 13.3332C10.221 13.3332 10.433 13.2453 10.5892 13.0891C10.7455 12.9328 10.8333 12.7208 10.8333 12.4998V9.7665C11.0852 9.62109 11.2947 9.41225 11.4409 9.16084C11.5871 8.90934 11.6649 8.624 11.6667 8.33317C11.6667 7.89115 11.4911 7.46722 11.1785 7.15466C10.8659 6.8421 10.442 6.6665 9.99999 6.6665Z" fill="black"/>
</svg>
