<svg width="22" height="18" viewBox="0 0 22 18" fill="none" xmlns="http://www.w3.org/2000/svg">
  <path d="M3 4C3 4.79113 3.2346 5.56448 3.67412 6.22228C4.11365 6.88008 4.73836 7.3928 5.46927 7.6955C6.20017 7.9983 7.00444 8.0775 7.78036 7.9231C8.55628 7.7688 9.269 7.3878 9.8284 6.82843C10.3878 6.26902 10.7688 5.55629 10.9231 4.78036C11.0775 4.00444 10.9983 3.20017 10.6955 2.46927C10.3928 1.73836 9.8801 1.11365 9.2223 0.67412C8.56448 0.2346 7.79113 0 7 0C5.93913 0 4.92172 0.42143 4.17157 1.17157C3.42143 1.92172 3 2.93913 3 4ZM9 4C9 4.39556 8.8827 4.78224 8.66294 5.11114C8.44318 5.44004 8.13082 5.69638 7.76537 5.84776C7.39991 5.99913 6.99778 6.03874 6.60982 5.96157C6.22186 5.8844 5.86549 5.69392 5.58579 5.41421C5.30608 5.13451 5.1156 4.77814 5.03843 4.39018C4.96126 4.00222 5.00087 3.60009 5.15224 3.23463C5.30362 2.86918 5.55996 2.55682 5.88886 2.33706C6.21776 2.1173 6.60444 2 7 2C7.53043 2 8.03914 2.21071 8.41421 2.58579C8.78929 2.96086 9 3.46957 9 4ZM1 18H13C13.2652 18 13.5196 17.8946 13.7071 17.7071C13.8946 17.5196 14 17.2652 14 17V14C14 12.9391 13.5786 11.9217 12.8284 11.1716C12.0783 10.4214 11.0609 10 10 10H4C2.93913 10 1.92172 10.4214 1.17157 11.1716C0.42143 11.9217 0 12.9391 0 14V17C0 17.2652 0.10536 17.5196 0.29289 17.7071C0.48043 17.8946 0.73478 18 1 18ZM2 14C2 13.4696 2.21071 12.9609 2.58579 12.5858C2.96086 12.2107 3.46957 12 4 12H10C10.5304 12 11.0391 12.2107 11.4142 12.5858C11.7893 12.9609 12 13.4696 12 14V16H2V14ZM22 1C22 1.26522 21.8946 1.51957 21.7071 1.70711C21.5196 1.89464 21.2652 2 21 2H15C14.7348 2 14.4804 1.89464 14.2929 1.70711C14.1054 1.51957 14 1.26522 14 1C14 0.73478 14.1054 0.48043 14.2929 0.29289C14.4804 0.10536 14.7348 0 15 0H21C21.2652 0 21.5196 0.10536 21.7071 0.29289C21.8946 0.48043 22 0.73478 22 1ZM22 5C22 5.26522 21.8946 5.51957 21.7071 5.70711C21.5196 5.89464 21.2652 6 21 6H15C14.7348 6 14.4804 5.89464 14.2929 5.70711C14.1054 5.51957 14 5.26522 14 5C14 4.73478 14.1054 4.48043 14.2929 4.29289C14.4804 4.10536 14.7348 4 15 4H21C21.2652 4 21.5196 4.10536 21.7071 4.29289C21.8946 4.48043 22 4.73478 22 5ZM22 9C22 9.2652 21.8946 9.5196 21.7071 9.7071C21.5196 9.8946 21.2652 10 21 10H15C14.7348 10 14.4804 9.8946 14.2929 9.7071C14.1054 9.5196 14 9.2652 14 9C14 8.7348 14.1054 8.4804 14.2929 8.2929C14.4804 8.1054 14.7348 8 15 8H21C21.2652 8 21.5196 8.1054 21.7071 8.2929C21.8946 8.4804 22 8.7348 22 9Z" fill="#FE724C" />
</svg>
