<svg width="14" height="14" viewBox="0 0 14 14" fill="none" xmlns="http://www.w3.org/2000/svg">
<g clip-path="url(#clip0_8_2472)">
<mask id="mask0_8_2472" style="mask-type:luminance" maskUnits="userSpaceOnUse" x="0" y="0" width="14" height="14">
<path d="M14 0H0V14H14V0Z" fill="white"/>
</mask>
<g mask="url(#mask0_8_2472)">
<path d="M7 5.83333C8.12759 5.83333 9.04167 4.91925 9.04167 3.79167C9.04167 2.66409 8.12759 1.75 7 1.75C5.87242 1.75 4.95834 2.66409 4.95834 3.79167C4.95834 4.91925 5.87242 5.83333 7 5.83333Z" stroke="#FE724C" stroke-width="2" stroke-linecap="round" stroke-linejoin="round"/>
<path d="M3.5 2.11572C2.97106 2.48467 2.625 3.09762 2.625 3.79144C2.625 4.53411 3.02155 5.18418 3.61445 5.54144" stroke="#FE724C" stroke-width="2" stroke-linecap="round" stroke-linejoin="round"/>
<path d="M10.5 2.11572C11.029 2.48467 11.375 3.09762 11.375 3.79144C11.375 4.48523 11.029 5.09822 10.5 5.46715" stroke="#FE724C" stroke-width="2" stroke-linecap="round" stroke-linejoin="round"/>
<path d="M3.5 11.6665V12.2498H10.5V11.6665C10.5 10.5793 10.5 10.0357 10.3224 9.60687C10.0855 9.03515 9.63136 8.5809 9.05963 8.34413C8.63082 8.1665 8.08716 8.1665 7 8.1665C5.91284 8.1665 5.3692 8.1665 4.9404 8.34413C4.36867 8.5809 3.91443 9.03515 3.67763 9.60687C3.5 10.0357 3.5 10.5793 3.5 11.6665Z" stroke="#FE724C" stroke-width="2" stroke-linecap="round" stroke-linejoin="round"/>
<path d="M12.8336 12.25V11.9C12.8336 10.5932 12.8336 9.93978 12.5793 9.44062C12.3556 9.00161 11.9986 8.64461 11.5596 8.4209" stroke="#FE724C" stroke-width="2" stroke-linecap="round" stroke-linejoin="round"/>
<path d="M1.16667 12.25V11.9C1.16667 10.5932 1.16667 9.93978 1.42098 9.44062C1.64469 9.00161 2.00165 8.64461 2.44069 8.4209" stroke="#FE724C" stroke-width="2" stroke-linecap="round" stroke-linejoin="round"/>
</g>
</g>
<defs>
<clipPath id="clip0_8_2472">
<rect width="14" height="14" fill="white"/>
</clipPath>
</defs>
</svg>
