<svg width="20" height="20" viewBox="0 0 20 20" fill="none" xmlns="http://www.w3.org/2000/svg">
<g clip-path="url(#clip0_16_2738)">
<mask id="mask0_16_2738" style="mask-type:luminance" maskUnits="userSpaceOnUse" x="0" y="0" width="20" height="20">
<path d="M20 0H0V20H20V0Z" fill="white"/>
</mask>
<g mask="url(#mask0_16_2738)">
<path d="M7.94667 10.8333H6.1075C5.76417 11.805 4.83833 12.5 3.75 12.5C2.36917 12.5 1.25 11.3808 1.25 10C1.25 8.61917 2.36917 7.5 3.75 7.5C4.83833 7.5 5.765 8.19583 6.10833 9.16667H7.94667L10.8333 4.16667H13.475C13.8183 3.19583 14.745 2.5 15.8333 2.5C17.2142 2.5 18.3333 3.61917 18.3333 5C18.3333 6.38083 17.2142 7.5 15.8333 7.5C14.745 7.5 13.8192 6.805 13.4758 5.83333H11.795L9.39 9.99917L11.7958 14.1667H13.4758C13.8183 13.1958 14.745 12.5 15.8333 12.5C17.2142 12.5 18.3333 13.6192 18.3333 15C18.3333 16.3808 17.2142 17.5 15.8333 17.5C14.745 17.5 13.8192 16.805 13.4758 15.8333H10.8333L7.94667 10.8333ZM15.8333 14.1667C15.3733 14.1667 15 14.54 15 15C15 15.46 15.3733 15.8333 15.8333 15.8333C16.2933 15.8333 16.6667 15.46 16.6667 15C16.6667 14.54 16.2933 14.1667 15.8333 14.1667ZM3.75 9.16667C3.29 9.16667 2.91667 9.54 2.91667 10C2.91667 10.46 3.29 10.8333 3.75 10.8333C4.21 10.8333 4.58333 10.46 4.58333 10C4.58333 9.54 4.21 9.16667 3.75 9.16667ZM15.8333 4.16667C15.3733 4.16667 15 4.54 15 5C15 5.46 15.3733 5.83333 15.8333 5.83333C16.2933 5.83333 16.6667 5.46 16.6667 5C16.6667 4.54 16.2933 4.16667 15.8333 4.16667Z" fill="#22C55E"/>
</g>
</g>
<defs>
<clipPath id="clip0_16_2738">
<rect width="20" height="20" fill="white"/>
</clipPath>
</defs>
</svg>
